<svg xmlns="http://www.w3.org/2000/svg" viewBox="0 0 320 180" width="320" height="180" fill="none"><rect width="320" height="180" fill="#F5F7F9"/><path d="M18 158H302" stroke="#8A95A1" stroke-width="2.5" stroke-linecap="round"/><path d="M40 22V158" stroke="#8A95A1" stroke-width="7" stroke-linecap="round"/><circle cx="40" cy="34" r="6" stroke="#8A95A1" stroke-width="3" fill="#F5F7F9"/><g stroke="#B6C0CB" stroke-width="4.5" fill="none" stroke-linecap="round" stroke-linejoin="round"><path d="M40 34L244 30"/><path d="M214 64L215.5 35.1L244 30"/></g><circle cx="244" cy="30" r="6" fill="#B6C0CB"/><path d="M40 34L212 88" stroke="#7A9E12" stroke-width="5" fill="none" stroke-linecap="round" stroke-linejoin="round"/><g stroke="#0F151B" stroke-width="5" fill="none" stroke-linecap="round" stroke-linejoin="round"><circle cx="214" cy="45" r="11"/><path d="M214 56V106"/><path d="M214 106L228 132L228 158"/><path d="M214 106L198 132L194 158"/><path d="M214 64L230.9 77.5L212 88"/></g><circle cx="212" cy="88" r="7" fill="#0F151B"/><path d="M244 30Q214 51.3 212 88" stroke="#0F151B" stroke-width="3" stroke-dasharray="7 5" fill="none"/><path d="M207.8 77.9L212 88L217.3 78.4" stroke="#0F151B" stroke-width="3" fill="none"/><circle cx="26" cy="18" r="5" fill="#B6C0CB"/><text x="37" y="23" font-family="system-ui,sans-serif" font-size="12" fill="#8A95A1">Start</text><circle cx="92" cy="18" r="6" fill="#0F151B"/><text x="104" y="23" font-family="system-ui,sans-serif" font-size="12" fill="#0F151B">Finish</text><text x="302" y="23" text-anchor="end" font-family="system-ui,sans-serif" font-size="12" font-weight="600" fill="#7A9E12">Anchor: as high as it goes</text></svg>